<svg xmlns="http://www.w3.org/2000/svg" viewBox="0 0 512 512"><path d="M392 320c-13.25 0-24 10.75-24 24v112c0 4.406-3.594 8-8 8H56c-4.406 0-8-3.594-8-8V152c0-4.406 3.594-8 8-8h112c13.25 0 24-10.75 24-24s-10.75-24-24-24H56c-30.875 0-56 25.125-56 56v304c0 30.875 25.125 56 56 56h304c30.875 0 56-25.125 56-56V344c0-13.25-10.75-24-24-24ZM488 0H320c-13.25 0-24 10.75-24 24s10.75 24 24 24h110.062L183.031 295.031c-9.375 9.375-9.375 24.563 0 33.938A23.9 23.9 0 0 0 200 336a23.9 23.9 0 0 0 16.969-7.031L464 81.938V192c0 13.25 10.75 24 24 24s24-10.75 24-24V24c0-13.25-10.75-24-24-24Z"/></svg>