<svg xmlns="http://www.w3.org/2000/svg" viewBox="0 0 448 512"><!-- Font Awesome Pro 6.0.0-alpha1 by @fontawesome - https://fontawesome.com License - https://fontawesome.com/license (Commercial License) --><path d="M424 392H24C11 392 0 403 0 416V416C0 429 11 440 24 440H424C437 440 448 429 448 416V416C448 403 437 392 424 392ZM424 72H24C11 72 0 83 0 96V96C0 109 11 120 24 120H424C437 120 448 109 448 96V96C448 83 437 72 424 72ZM424 232H24C11 232 0 243 0 256V256C0 269 11 280 24 280H424C437 280 448 269 448 256V256C448 243 437 232 424 232Z"/></svg>