<svg viewBox="0 0 512 512" xmlns="http://www.w3.org/2000/svg"><path d="m457.65 54.783-.441-.441c-14.686-14.656-37.156-16.922-54.325-6.828C359.083 16.393 308.546 0 256 0c-52.545 0-103.082 16.393-146.884 47.515-17.168-10.094-39.635-7.83-54.314 6.817l-.46.46c-14.656 14.689-16.92 37.158-6.827 54.325C16.393 152.918 0 203.455 0 256s16.393 103.082 47.515 146.884c-10.093 17.167-7.828 39.637 6.83 54.328l.446.446c14.622 14.59 37.075 16.971 54.326 6.828C152.919 495.607 203.455 512 256 512c52.546 0 103.082-16.393 146.883-47.514 17.272 10.155 39.721 7.745 54.329-6.831l.445-.445c14.657-14.689 16.922-37.158 6.828-54.326C495.606 359.082 512 308.545 512 256s-16.394-103.081-47.515-146.884c10.094-17.168 7.828-39.638-6.835-54.333zm-42.556 20.915c5.798-5.796 15.184-5.849 20.919-.126l.408.409c5.73 5.743 5.678 15.13-.118 20.925l-74.876 74.875a136.212 136.212 0 0 0-21.209-21.209zM361 256c0 57.897-47.103 105-105 105s-105-47.103-105-105 47.103-105 105-105 105 47.103 105 105zM256 30c44.114 0 86.687 13.18 124.112 38.253l-65.939 65.939C296.548 125.74 276.818 121 256 121s-40.548 4.74-58.174 13.191l-65.938-65.939C169.313 43.18 211.886 30 256 30zM75.572 75.988l.409-.409c5.743-5.73 15.13-5.677 20.926.118l74.875 74.876a136.212 136.212 0 0 0-21.209 21.209L75.697 96.906c-5.795-5.796-5.848-15.183-.125-20.918zM30 256c0-44.113 13.18-86.687 38.253-124.112l65.938 65.939C125.74 215.452 121 235.182 121 256s4.74 40.548 13.191 58.174l-65.938 65.939C43.18 342.687 30 300.113 30 256zm66.906 180.302c-5.796 5.796-15.182 5.849-20.941.103l-.386-.385c-5.73-5.743-5.677-15.13.118-20.926l74.875-74.875a136.168 136.168 0 0 0 21.209 21.209zM256 482c-44.114 0-86.687-13.18-124.112-38.253l65.938-65.939C215.452 386.26 235.182 391 256 391s40.548-4.74 58.174-13.191l65.939 65.939C342.687 468.82 300.114 482 256 482zm180.423-45.983-.404.404c-5.742 5.73-15.128 5.677-20.925-.119l-74.875-74.875a136.168 136.168 0 0 0 21.209-21.209l74.876 74.876c5.795 5.796 5.847 15.183.119 20.923zM482 256c0 44.113-13.18 86.687-38.253 124.112l-65.938-65.938C386.26 296.548 391 276.818 391 256s-4.74-40.548-13.191-58.174l65.938-65.938C468.82 169.314 482 211.887 482 256z"/></svg>