<svg height="512pt" viewBox="0 -76 512 512" width="512pt" xmlns="http://www.w3.org/2000/svg"><path d="M452 0H60C26.914 0 0 26.914 0 60v240c0 33.086 26.914 60 60 60h392c33.086 0 60-26.914 60-60V60c0-33.086-26.914-60-60-60zM60 40h392c11.027 0 20 8.973 20 20v20H40V60c0-11.027 8.973-20 20-20zm392 280H60c-11.027 0-20-8.973-20-20V120h432v180c0 11.027-8.973 20-20 20zm-10-55c0 13.809-11.191 25-25 25s-25-11.191-25-25 11.191-25 25-25 25 11.191 25 25zm-70 0c0 13.809-11.191 25-25 25s-25-11.191-25-25 11.191-25 25-25 25 11.191 25 25zm0 0"/></svg>