<svg fill="none" height="512" viewBox="0 0 24 24" width="512" xmlns="http://www.w3.org/2000/svg"><g clip-rule="evenodd" fill="rgb(0,0,0)" fill-rule="evenodd"><path d="m12 4c-4.41828 0-8 3.58172-8 8 0 4.4183 3.58172 8 8 8 4.4183 0 8-3.5817 8-8 0-4.41828-3.5817-8-8-8zm-10 8c0-5.52285 4.47715-10 10-10 5.5228 0 10 4.47715 10 10 0 5.5228-4.4772 10-10 10-5.52285 0-10-4.4772-10-10z"/><path d="m11.168 11.4453c.3063-.4595.9272-.5837 1.3867-.2774l3 2c.4595.3064.5837.9273.2774 1.3868-.3064.4595-.9273.5837-1.3868.2773l-3-2c-.4595-.3063-.5837-.9272-.2773-1.3867z"/><path d="m12 6c.5523 0 1 .44772 1 1v5c0 .5523-.4477 1-1 1s-1-.4477-1-1v-5c0-.55228.4477-1 1-1z"/></g></svg>