<svg height="512pt" viewBox="0 0 512 512" width="512pt" xmlns="http://www.w3.org/2000/svg"><path d="m197.332031 170.667969h-160c-20.585937 0-37.332031-16.746094-37.332031-37.335938v-96c0-20.585937 16.746094-37.332031 37.332031-37.332031h160c20.589844 0 37.335938 16.746094 37.335938 37.332031v96c0 20.589844-16.746094 37.335938-37.335938 37.335938zm-160-138.667969c-2.941406 0-5.332031 2.390625-5.332031 5.332031v96c0 2.945313 2.390625 5.335938 5.332031 5.335938h160c2.945313 0 5.335938-2.390625 5.335938-5.335938v-96c0-2.941406-2.390625-5.332031-5.335938-5.332031zm0 0"/><path d="m197.332031 512h-160c-20.585937 0-37.332031-16.746094-37.332031-37.332031v-224c0-20.589844 16.746094-37.335938 37.332031-37.335938h160c20.589844 0 37.335938 16.746094 37.335938 37.335938v224c0 20.585937-16.746094 37.332031-37.335938 37.332031zm-160-266.667969c-2.941406 0-5.332031 2.390625-5.332031 5.335938v224c0 2.941406 2.390625 5.332031 5.332031 5.332031h160c2.945313 0 5.335938-2.390625 5.335938-5.332031v-224c0-2.945313-2.390625-5.335938-5.335938-5.335938zm0 0"/><path d="m474.667969 512h-160c-20.589844 0-37.335938-16.746094-37.335938-37.332031v-96c0-20.589844 16.746094-37.335938 37.335938-37.335938h160c20.585937 0 37.332031 16.746094 37.332031 37.335938v96c0 20.585937-16.746094 37.332031-37.332031 37.332031zm-160-138.667969c-2.945313 0-5.335938 2.390625-5.335938 5.335938v96c0 2.941406 2.390625 5.332031 5.335938 5.332031h160c2.941406 0 5.332031-2.390625 5.332031-5.332031v-96c0-2.945313-2.390625-5.335938-5.332031-5.335938zm0 0"/><path d="m474.667969 298.667969h-160c-20.589844 0-37.335938-16.746094-37.335938-37.335938v-224c0-20.585937 16.746094-37.332031 37.335938-37.332031h160c20.585937 0 37.332031 16.746094 37.332031 37.332031v224c0 20.589844-16.746094 37.335938-37.332031 37.335938zm-160-266.667969c-2.945313 0-5.335938 2.390625-5.335938 5.332031v224c0 2.945313 2.390625 5.335938 5.335938 5.335938h160c2.941406 0 5.332031-2.390625 5.332031-5.335938v-224c0-2.941406-2.390625-5.332031-5.332031-5.332031zm0 0"/></svg>