<svg enable-background="new 0 0 32 32" height="512" viewBox="0 0 32 32" width="512" xmlns="http://www.w3.org/2000/svg"><g id="_x31_6"><path d="m29 11h-26c-.5522 0-1-.4473-1-1v-6c0-.5527.4478-1 1-1h26c.5522 0 1 .4473 1 1v6c0 .5527-.4478 1-1 1zm-25-2h24v-4h-24z"/><path d="m25 17h-18c-.5522 0-1-.4473-1-1v-6c0-.5527.4478-1 1-1h18c.5522 0 1 .4473 1 1v6c0 .5527-.4478 1-1 1zm-17-2h16v-4h-16z"/><path d="m22 23h-12c-.5522 0-1-.4473-1-1v-6c0-.5527.4478-1 1-1h12c.5522 0 1 .4473 1 1v6c0 .5527-.4478 1-1 1zm-11-2h10v-4h-10z"/><path d="m19 29h-6c-.5522 0-1-.4473-1-1v-6c0-.5527.4478-1 1-1h6c.5522 0 1 .4473 1 1v6c0 .5527-.4478 1-1 1zm-5-2h4v-4h-4z"/></g></svg>