<?xml version="1.0" encoding="iso-8859-1"?>
<!-- Generator: Adobe Illustrator 19.0.0, SVG Export Plug-In . SVG Version: 6.00 Build 0)  -->
<svg version="1.1" id="Capa_1" xmlns="http://www.w3.org/2000/svg" xmlns:xlink="http://www.w3.org/1999/xlink" x="0px" y="0px"
	 viewBox="0 0 512 512" style="enable-background:new 0 0 512 512;" xml:space="preserve">
<g>
	<g>
		<path d="M223.718,124.76c-48.027,11.198-86.688,49.285-98.494,97.031c-11.843,47.899,1.711,96.722,36.259,130.601
			C173.703,364.377,181,383.586,181,403.777V407c0,13.296,5.801,25.26,15,33.505V467c0,24.813,20.187,45,45,45h30
			c24.813,0,45-20.187,45-45v-26.495c9.199-8.245,15-20.208,15-33.505v-3.282c0-19.884,7.687-39.458,20.563-52.361
			C376.994,325.87,391,292.005,391,256C391,169.921,311.231,104.362,223.718,124.76z M286,467c0,8.271-6.729,15-15,15h-30
			c-8.271,0-15-6.729-15-15v-15h60V467z M330.326,330.166C311.689,348.843,301,375.651,301,403.718V407c0,8.271-6.729,15-15,15h-60
			c-8.271,0-15-6.729-15-15v-3.223c0-28.499-10.393-55.035-28.513-72.804c-26.89-26.37-37.409-64.493-28.141-101.981
			c9.125-36.907,39.029-66.353,76.184-75.015C299.202,137.964,361,189.228,361,256C361,284.004,350.106,310.343,330.326,330.166z"/>
	</g>
</g>
<g>
	<g>
		<path d="M139.327,118.114L96.9,75.688c-5.857-5.858-15.355-5.858-21.213,0c-5.858,5.858-5.858,15.355,0,21.213l42.427,42.426
			c5.857,5.858,15.356,5.858,21.213,0C145.185,133.469,145.185,123.972,139.327,118.114z"/>
	</g>
</g>
<g>
	<g>
		<path d="M76,241H15c-8.284,0-15,6.716-15,15s6.716,15,15,15h61c8.284,0,15-6.716,15-15S84.284,241,76,241z"/>
	</g>
</g>
<g>
	<g>
		<path d="M497,241h-61c-8.284,0-15,6.716-15,15s6.716,15,15,15h61c8.284,0,15-6.716,15-15S505.284,241,497,241z"/>
	</g>
</g>
<g>
	<g>
		<path d="M436.313,75.688c-5.856-5.858-15.354-5.858-21.213,0l-42.427,42.426c-5.858,5.857-5.858,15.355,0,21.213
			c5.857,5.858,15.355,5.858,21.213,0l42.427-42.426C442.171,91.044,442.171,81.546,436.313,75.688z"/>
	</g>
</g>
<g>
	<g>
		<path d="M256,0c-8.284,0-15,6.716-15,15v61c0,8.284,6.716,15,15,15s15-6.716,15-15V15C271,6.716,264.284,0,256,0z"/>
	</g>
</g>
<g>
	<g>
		<path d="M256,181c-6.166,0-12.447,0.739-18.658,2.194c-25.865,6.037-47.518,27.328-53.879,52.979
			c-1.994,8.041,2.907,16.175,10.947,18.17c8.042,1.994,16.176-2.909,18.17-10.948c3.661-14.758,16.647-27.5,31.593-30.989
			C248.155,211.473,252.135,211,256,211c8.284,0,15-6.716,15-15S264.284,181,256,181z"/>
	</g>
</g>
<g>
</g>
<g>
</g>
<g>
</g>
<g>
</g>
<g>
</g>
<g>
</g>
<g>
</g>
<g>
</g>
<g>
</g>
<g>
</g>
<g>
</g>
<g>
</g>
<g>
</g>
<g>
</g>
<g>
</g>
</svg>
