
<?xml version="1.0" encoding="iso-8859-1"?>
<!-- Generator: Adobe Illustrator 19.0.0, SVG Export Plug-In . SVG Version: 6.00 Build 0)  -->
<svg version="1.1" id="Capa_1" xmlns="http://www.w3.org/2000/svg" xmlns:xlink="http://www.w3.org/1999/xlink" x="0px" y="0px"
     viewBox="0 0 490 490" style="enable-background:new 0 0 490 490;" xml:space="preserve">
<g>
    <path d="M84.765,454.31h66.17V280.967h-66.17V454.31z M100.077,296.28h35.545v142.717h-35.545V296.28z"/>
    <path d="M66.17,345.589H0v108.72h66.17V345.589z M50.857,438.997H15.313v-78.095h35.545V438.997z"/>
    <path d="M169.529,454.31h66.17V193.16h-66.17V454.31z M184.842,208.472h35.545v230.525h-35.545V208.472z"/>
    <path d="M254.294,454.31h66.17V35.13h-66.17V454.31z M269.606,50.442h35.545v388.555h-35.545V50.442z"/>
    <path d="M405.235,454.31V116.612h-66.177V454.31H405.235z M354.371,131.924h35.552v307.073h-35.552V131.924z"/>
    <path d="M423.823,454.87H490V246.409h-66.177V454.87z M439.135,261.722h35.552v177.836h-35.552V261.722z"/>
</g>
<g>
</g>
<g>
</g>
<g>
</g>
<g>
</g>
<g>
</g>
<g>
</g>
<g>
</g>
<g>
</g>
<g>
</g>
<g>
</g>
<g>
</g>
<g>
</g>
<g>
</g>
<g>
</g>
<g>
</g>
</svg>
