<svg fill="none" height="512" viewBox="0 0 24 24" width="512" xmlns="http://www.w3.org/2000/svg"><path clip-rule="evenodd" d="m19 9.87398c1.7252-.44404 3-2.01014 3-3.87398 0-2.20914-1.7909-4-4-4-1.8638 0-3.4299 1.27477-3.874 3h-4.25202c-.44404-1.72523-2.01014-3-3.87398-3-2.20914 0-4 1.79086-4 4 0 1.86384 1.27477 3.42994 3 3.87398v4.25202c-1.72523.4441-3 2.0102-3 3.874 0 2.2091 1.79086 4 4 4 1.86384 0 3.42994-1.2748 3.87398-3h4.25202c.4441 1.7252 2.0102 3 3.874 3 2.2091 0 4-1.7909 4-4 0-1.8638-1.2748-3.4299-3-3.874zm-13-5.87398c1.10457 0 2 .89543 2 2 0 1.1043-.895 1.99957-1.99919 2-1.10457 0-2.00081-.89543-2.00081-2s.89543-2 2-2zm3.87398 3c-.36178 1.40561-1.46837 2.5122-2.87398 2.87398v4.25202c1.40561.3618 2.5122 1.4684 2.87398 2.874h4.25202c.3618-1.4056 1.4684-2.5122 2.874-2.874v-4.25202c-1.4056-.36178-2.5122-1.46837-2.874-2.87398zm8.12602 1c-1.1046 0-2-.89543-2-2s.8954-2 2-2 2 .89543 2 2-.8954 2-2 2zm0 8c-1.1046 0-2 .8954-2 2s.8954 2 2 2 2-.8954 2-2-.8954-2-2-2zm-10 2c0-1.1046-.89543-2-2-2s-2 .8954-2 2 .89543 2 2 2 2-.8954 2-2z" fill="rgb(0,0,0)" fill-rule="evenodd"/></svg>