<svg xmlns="http://www.w3.org/2000/svg" viewBox="0 0 1400 1400"><path d="M367.43,422.13a54.44,54.44,0,0,1-38.66-16L205,282.35A54.69,54.69,0,0,1,282.37,205L406.11,328.79a54.68,54.68,0,0,1-38.68,93.34Z"/><path d="M1156.3,1211a54.51,54.51,0,0,1-38.67-16L993.89,1071.21a54.68,54.68,0,1,1,77.34-77.33L1195,1117.65A54.7,54.7,0,0,1,1156.3,1211Z"/><path d="M243.7,1211A54.7,54.7,0,0,1,205,1117.65L328.74,993.89a54.69,54.69,0,0,1,77.36,77.32L282.37,1195A54.51,54.51,0,0,1,243.7,1211Z"/><path d="M1032.57,422.13a54.68,54.68,0,0,1-38.68-93.34L1117.61,205A54.69,54.69,0,0,1,1195,282.35L1071.23,406.11A54.44,54.44,0,0,1,1032.57,422.13Z"/><path d="M229.69,754.69h-175a54.69,54.69,0,0,1,0-109.38h175a54.69,54.69,0,0,1,0,109.38Z"/><path d="M1345.31,754.69h-175a54.69,54.69,0,0,1,0-109.38h175a54.69,54.69,0,0,1,0,109.38Z"/><path d="M700,1400a54.68,54.68,0,0,1-54.69-54.69v-175a54.69,54.69,0,0,1,109.38,0v175A54.68,54.68,0,0,1,700,1400Z"/><path d="M700,284.38a54.7,54.7,0,0,1-54.69-54.69v-175a54.69,54.69,0,0,1,109.38,0v175A54.7,54.7,0,0,1,700,284.38Z"/><circle cx="700" cy="700" r="306.25"/></svg>