<svg xmlns="http://www.w3.org/2000/svg" viewBox="0 0 477.869 477.869" style="enable-background:new 0 0 477.869 477.869" xml:space="preserve"><path d="M387.415 233.496c48.976-44.029 52.987-119.424 8.958-168.4C355.991 20.177 288.4 12.546 239.02 47.332c-53.83-37.99-128.264-25.149-166.254 28.68-34.859 49.393-27.259 117.054 17.689 157.483C34.606 262.935-.251 320.976.002 384.108v51.2c0 9.426 7.641 17.067 17.067 17.067h443.733c9.426 0 17.067-7.641 17.067-17.067v-51.2c.252-63.132-34.605-121.173-90.454-150.612zM307.201 59.842c47.062-.052 85.256 38.057 85.309 85.119.037 33.564-19.631 64.023-50.237 77.799-1.314.597-2.628 1.143-3.959 1.707a83.66 83.66 0 0 1-12.988 4.045c-.853.188-1.707.29-2.577.461a85.366 85.366 0 0 1-15.019 1.519c-2.27 0-4.557-.171-6.827-.375-.853 0-1.707 0-2.56-.171a86.219 86.219 0 0 1-27.904-8.226c-.324-.154-.7-.137-1.024-.273-1.707-.819-3.413-1.536-4.932-2.458.137-.171.222-.358.358-.529a119.721 119.721 0 0 0 18.278-33.297l.529-1.434a120.381 120.381 0 0 0 4.523-17.562c.154-.87.273-1.707.41-2.645.987-6.067 1.506-12.2 1.553-18.347a120.041 120.041 0 0 0-1.553-18.313c-.137-.887-.256-1.707-.41-2.645a120.414 120.414 0 0 0-4.523-17.562l-.529-1.434a119.747 119.747 0 0 0-18.278-33.297c-.137-.171-.222-.358-.358-.529a84.787 84.787 0 0 1 42.718-11.553zM85.335 145.176c-.121-47.006 37.886-85.21 84.892-85.331a85.112 85.112 0 0 1 59.134 23.686c.99.956 1.963 1.911 2.918 2.901a87.748 87.748 0 0 1 8.09 9.813c.751 1.058 1.434 2.185 2.133 3.277a83.951 83.951 0 0 1 6.263 11.52c.427.973.751 1.963 1.126 2.935a83.422 83.422 0 0 1 4.233 13.653c.12.512.154 1.024.256 1.553a80.338 80.338 0 0 1 0 32.119c-.102.529-.137 1.041-.256 1.553a83.228 83.228 0 0 1-4.233 13.653c-.375.973-.7 1.963-1.126 2.935a84.251 84.251 0 0 1-6.263 11.503c-.7 1.092-1.382 2.219-2.133 3.277a87.549 87.549 0 0 1-8.09 9.813c-.956.99-1.929 1.946-2.918 2.901a85.187 85.187 0 0 1-23.569 15.906 49.35 49.35 0 0 1-4.198 1.707 85.839 85.839 0 0 1-12.663 3.925c-1.075.239-2.185.375-3.277.563a84.67 84.67 0 0 1-14.046 1.417h-1.877a84.563 84.563 0 0 1-14.046-1.417c-1.092-.188-2.202-.324-3.277-.563a85.802 85.802 0 0 1-12.663-3.925c-1.417-.563-2.816-1.143-4.198-1.707-30.534-13.786-50.173-44.166-50.212-77.667zm221.866 273.066H34.135v-34.133c-.25-57.833 36.188-109.468 90.76-128.614a119.092 119.092 0 0 0 91.546 0 137.138 137.138 0 0 1 16.623 7.356c3.55 1.826 6.827 3.908 10.24 6.007 2.219 1.382 4.471 2.731 6.605 4.25 3.294 2.338 6.4 4.881 9.455 7.492 1.963 1.707 3.908 3.413 5.751 5.12 2.816 2.662 5.461 5.478 8.004 8.363a134.465 134.465 0 0 1 5.291 6.383 132.594 132.594 0 0 1 6.349 8.823c1.707 2.56 3.226 5.222 4.727 7.885 1.707 2.935 3.277 5.871 4.71 8.926 1.434 3.055 2.697 6.4 3.925 9.66 1.075 2.833 2.219 5.649 3.106 8.533 1.195 3.959 2.031 8.055 2.867 12.151.512 2.423 1.178 4.796 1.553 7.253a141.153 141.153 0 0 1 1.553 20.412v34.133zm136.534 0h-102.4v-34.133c0-5.342-.307-10.633-.785-15.872-.137-1.536-.375-3.055-.546-4.591-.461-3.772-.99-7.509-1.707-11.213a246.936 246.936 0 0 0-.973-4.762c-.819-3.8-1.769-7.566-2.85-11.298-.358-1.229-.683-2.475-1.058-3.686a169.105 169.105 0 0 0-20.565-43.127l-.666-.973a168.958 168.958 0 0 0-9.404-12.646l-.119-.154a154.895 154.895 0 0 0-11.008-12.237h.7a120.8 120.8 0 0 0 14.524 1.024h.939c4.496-.039 8.985-.33 13.449-.87 1.399-.171 2.782-.427 4.181-.649a117.43 117.43 0 0 0 10.752-2.167c1.007-.256 2.031-.495 3.055-.785a116.211 116.211 0 0 0 13.653-4.642c54.612 19.127 91.083 70.785 90.829 128.649v34.132z"/></svg>