<svg height="512pt" viewBox="-56 0 512 512" width="512pt" xmlns="http://www.w3.org/2000/svg"><path d="M267 236.375c36.254-22.582 60.434-62.797 60.434-108.563C327.434 57.337 270.098 0 199.62 0 129.145 0 71.81 57.336 71.81 127.813c0 45.765 24.18 85.976 60.43 108.558C55.222 264.071 0 337.84 0 424.273v72.243C0 505.066 6.934 512 15.484 512H383.75c8.55 0 15.48-6.934 15.48-15.484v-72.243c0-86.43-55.218-160.195-132.23-187.898zm101.266 244.656H30.969v-56.758c0-92.992 75.652-168.644 168.648-168.644 92.992 0 168.649 75.652 168.649 168.644zm-71.801-353.219c0 53.403-43.442 96.848-96.844 96.848s-96.844-43.445-96.844-96.847c0-53.399 43.442-96.844 96.844-96.844s96.844 43.445 96.844 96.844zm0 0"/></svg>