<svg height="512pt" viewBox="-56 0 512 512" width="512pt" xmlns="http://www.w3.org/2000/svg"><path d="m267 236.375c36.253906-22.582031 60.433594-62.796875 60.433594-108.5625 0-70.476562-57.335938-127.8125-127.8125-127.8125-70.476563 0-127.8125 57.335938-127.8125 127.8125 0 45.765625 24.179687 85.976562 60.429687 108.558594-77.015625 27.699218-132.238281 101.46875-132.238281 187.902344v72.242187c0 8.550781 6.933594 15.484375 15.484375 15.484375h368.265625c8.550781 0 15.480469-6.933594 15.480469-15.484375v-72.242187c0-86.429688-55.21875-160.195313-132.230469-187.898438zm101.265625 244.65625h-337.296875v-56.757812c0-92.992188 75.652344-168.644532 168.648438-168.644532 92.992187 0 168.648437 75.652344 168.648437 168.644532zm-71.800781-353.21875c0 53.402344-43.441406 96.847656-96.84375 96.847656s-96.84375-43.445312-96.84375-96.847656c0-53.398438 43.441406-96.84375 96.84375-96.84375s96.84375 43.445312 96.84375 96.84375zm0 0"/></svg>