<svg xmlns="http://www.w3.org/2000/svg" viewBox="0 0 1652 1652"><title>Asset 1</title><g id="Layer_2" data-name="Layer 2"><g id="Layer_1-2" data-name="Layer 1"><path d="M1587.07,504.47A828.56,828.56,0,1,0,1652,826,823.13,823.13,0,0,0,1587.07,504.47ZM826,1577a747.29,747.29,0,0,1-464.48-161.26,39.94,39.94,0,0,0,2.8-11.35,458.82,458.82,0,0,1,34.29-135.74,464.15,464.15,0,0,1,854.78,0,458.82,458.82,0,0,1,34.29,135.74,39.94,39.94,0,0,0,2.8,11.35A747.29,747.29,0,0,1,826,1577ZM719.81,866.57A274,274,0,1,1,826,888,272.1,272.1,0,0,1,719.81,866.57Zm641.28,485.87c-36.11-201.1-182.78-363.82-374.86-423,114.28-58.37,192.53-177.22,192.53-314.35,0-194.83-157.94-352.76-352.76-352.76S473.24,420.29,473.24,615.12c0,137.13,78.25,256,192.53,314.35-192.08,59.15-338.75,221.87-374.86,423C157.46,1216.81,75,1030.86,75,826,75,411.9,411.9,75,826,75s751,336.9,751,751C1577,1030.86,1494.54,1216.81,1361.09,1352.44Z"/></g></g></svg>