<svg xmlns="http://www.w3.org/2000/svg" viewBox="0 0 511.999 511.999" style="enable-background:new 0 0 511.999 511.999" xml:space="preserve"><path d="M437.019 74.981C388.667 26.628 324.38 0 256 0 187.62 0 123.332 26.628 74.981 74.98 26.628 123.332 0 187.62 0 256s26.628 132.667 74.981 181.019c48.351 48.352 112.639 74.98 181.019 74.98 68.381 0 132.667-26.628 181.02-74.981C485.371 388.667 512 324.379 512 255.999s-26.629-132.667-74.981-181.018zM96.216 96.216c22.511-22.511 48.938-39.681 77.742-50.888-7.672 9.578-14.851 20.587-21.43 32.969-7.641 14.38-14.234 30.173-19.725 47.042-19.022-3.157-36.647-7.039-52.393-11.595a230.423 230.423 0 0 1 15.806-17.528zm-33.987 43.369c18.417 5.897 39.479 10.87 62.461 14.809-6.4 27.166-10.167 56.399-11.066 86.591H30.536c2.36-36.233 13.242-70.813 31.693-101.4zm-1.635 230.053c-17.455-29.899-27.769-63.481-30.059-98.623h83.146c.982 29.329 4.674 57.731 10.858 84.186-23.454 3.802-45.045 8.649-63.945 14.437zm35.622 46.146a229.917 229.917 0 0 1-17.831-20.055c16.323-4.526 34.571-8.359 54.214-11.433 5.53 17.103 12.194 33.105 19.928 47.662 7.17 13.493 15.053 25.349 23.51 35.505-29.61-11.183-56.769-28.629-79.821-51.679zm144.768 62.331c-22.808-6.389-44.384-27.217-61.936-60.249-6.139-11.552-11.531-24.155-16.15-37.587 24.73-2.722 51.045-4.331 78.086-4.709v102.545zm0-132.578c-29.988.409-59.217 2.292-86.59 5.507-6.038-24.961-9.671-51.978-10.668-80.028h97.259v74.521zm0-104.553h-97.315c.911-28.834 4.602-56.605 10.828-82.201 27.198 3.4 56.366 5.468 86.487 6.06v76.141zm0-106.176c-27.146-.547-53.403-2.317-77.958-5.205 4.591-13.292 9.941-25.768 16.022-37.215 17.551-33.032 39.128-53.86 61.936-60.249v102.669zm209.733 6.372c17.874 30.193 28.427 64.199 30.749 99.804h-83.088c-.889-29.844-4.584-58.749-10.85-85.647 23.133-3.736 44.456-8.489 63.189-14.157zm-34.934-44.964a230.122 230.122 0 0 1 16.914 18.91c-16.073 4.389-33.972 8.114-53.204 11.112-5.548-17.208-12.243-33.305-20.02-47.941-6.579-12.382-13.758-23.391-21.43-32.969 28.802 11.207 55.23 28.377 77.74 50.888zm-144.767 174.8h97.259c-1.004 28.268-4.686 55.49-10.81 80.612-27.194-3.381-56.349-5.43-86.449-6.006v-74.606zm0-30.032v-76.041c30.005-.394 59.257-2.261 86.656-5.464 6.125 25.403 9.756 52.932 10.659 81.505h-97.315zm-.002-208.845h.001c22.808 6.389 44.384 27.217 61.936 60.249 6.178 11.627 11.601 24.318 16.24 37.848-24.763 2.712-51.108 4.309-78.177 4.674V32.139zm.002 445.976V375.657c27.12.532 53.357 2.286 77.903 5.156-4.579 13.232-9.911 25.654-15.967 37.053-17.552 33.032-39.128 53.86-61.936 60.249zm144.767-62.331c-23.051 23.051-50.21 40.496-79.821 51.678 8.457-10.156 16.34-22.011 23.51-35.504 7.62-14.341 14.198-30.088 19.68-46.906 19.465 3.213 37.473 7.186 53.515 11.859a230.268 230.268 0 0 1-16.884 18.873zm34.823-44.775c-18.635-5.991-40-11.032-63.326-15.01 6.296-26.68 10.048-55.36 11.041-84.983h83.146c-2.328 35.678-12.918 69.753-30.861 99.993z"/></svg>