<svg id="Layer_1" enable-background="new 0 0 100 100" viewBox="0 0 100 100" xmlns="http://www.w3.org/2000/svg"><path d="m97.4999924 82.6562576.0000076-11.298912c0-1.957756-1.5870743-3.544838-3.544838-3.544838h-4.785324c-1.9577637 0-3.544838 1.5870743-3.544838 3.5448303l-.0000076 11.2989121c0 1.639595-1.329155 2.96875-2.96875 2.96875l-65.3124924-.0000229c-1.639596 0-2.96875-1.329155-2.968749-2.96875l.0000038-11.298912c0-1.957756-1.5870762-3.544838-3.544836-3.544838h-4.7853256c-1.9577594 0-3.5448372 1.5870743-3.544838 3.544838l-.0000036 11.298912c-.0000026 8.1979752 6.6457672 14.84375 14.8437443 14.84375l65.3124965.0000229c8.1979751 0 14.84375-6.6457672 14.84375-14.8437424z"/><path d="m29.6809349 44.1050034-3.3884087 3.3884048c-1.3843441 1.384346-1.384346 3.6288109-.0000019 5.0131569l19.5066929 19.5067101c2.3174515 2.3200302 6.0768623 2.3221207 8.3968925.0046768.0015564-.0015564.0031128-.0031204.0046692-.0046768l19.5067177-19.5066948c1.384346-1.3843422 1.384346-3.6288109 0-5.0131569l-3.3884125-3.3884048c-1.3843384-1.384346-3.6288071-1.384346-5.0131531-.0000038l-9.3684235 9.3684196.0000153-47.4285965c0-1.9577589-1.5870781-3.544837-3.5448341-3.5448377l-4.7853279-.0000014c-1.9577599-.0000007-3.544838 1.5870759-3.544838 3.5448353l-.0000153 47.4285965-9.3684158-9.3684235c-1.3843459-1.384346-3.6288127-1.384346-5.0131568-.0000038z"/></svg>
