<svg height="512" viewBox="0 0 508.467 508.467" width="512" xmlns="http://www.w3.org/2000/svg"><g><path d="m426.815 239.006c-11.722-11.724-30.702-11.729-42.427-.001-65.928 65.929 49.291-49.292-116.718 116.718-53.811 53.809-142.478 19.197-140.68-54.511.547-22.415 9.826-43.738 26.129-60.041l116.717-116.717c11.724-11.722 11.728-30.702 0-42.427l-46.668-46.669c-11.725-11.725-30.702-11.726-42.427 0-16.642 16.643-102.078 102.078-120.112 120.112-39.05 39.05-60.582 90.97-60.629 146.195-.093 110.827 88.182 206.288 206.244 206.394 56.778 0 109.204-21.924 148.29-61.01l118.948-118.948c11.724-11.722 11.728-30.702 0-42.427zm-224.861-182.434 46.669 46.669-58.455 58.456-46.669-46.669zm131.367 369.264c-69.043 69.043-182.868 70.02-251.708.933-68.763-69.009-68.66-181.196.229-250.086l40.443-40.443 46.669 46.669-37.049 37.049c-45.115 45.112-46.916 116.85-3.395 160.371 43.279 43.279 115.221 41.756 160.372-3.394l37.049-37.049 46.669 46.669zm60.494-60.493-46.669-46.669 58.456-58.456 46.669 46.669z"/><path d="m379.357 95.099c15.199 3.839 30.418 19.07 34.336 34.192 2.089 8.058 10.303 12.828 18.283 10.758 8.02-2.078 12.836-10.264 10.758-18.283-6.651-25.662-30.176-49.223-56.03-55.753-8.032-2.027-16.188 2.838-18.217 10.869-2.029 8.032 2.837 16.189 10.87 18.217z"/><path d="m507.984 102.124c-12.016-46.375-55.215-89.504-101.745-101.256-8.032-2.027-16.188 2.838-18.217 10.869-2.029 8.032 2.838 16.188 10.87 18.217 35.882 9.063 70.769 43.871 80.051 79.695 2.088 8.058 10.304 12.828 18.283 10.758 8.02-2.078 12.836-10.263 10.758-18.283z"/></g></svg>