<svg xmlns="http://www.w3.org/2000/svg" viewBox="0 0 512 512" style="enable-background:new 0 0 512 512" xml:space="preserve"><path d="M347 302c8.271 0 15 6.639 15 14.8h30c0-19.468-12.541-36.067-30-42.231V242h-30v32.58c-17.459 6.192-30 22.865-30 42.42 0 24.813 20.187 45 45 45 8.271 0 15 6.729 15 15s-6.729 15-15 15-15-6.729-15-15h-30c0 19.555 12.541 36.228 30 42.42v32.38h30v-32.38c17.459-6.192 30-22.865 30-42.42 0-24.813-20.187-45-45-45-8.271 0-15-6.729-15-15s6.729-15 15-15z"/><path d="M347 182c-5.057 0-10.058.242-15 .689V90c0-26.011-18.548-49.61-52.226-66.449C249.4 8.364 209.35 0 167 0 124.564 0 84.193 8.347 53.323 23.502 18.938 40.385 0 64 0 90v272c0 26 18.938 49.616 53.323 66.498C84.193 443.653 124.564 452 167 452c17.009 0 33.647-1.358 49.615-4.004C246.826 486.909 294.035 512 347 512c90.981 0 165-74.019 165-165s-74.019-165-165-165zM66.545 50.432C92.992 37.447 129.606 30 167 30c79.558 0 135 31.621 135 60s-55.442 60-135 60c-37.394 0-74.008-7.447-100.455-20.432C43.32 118.166 30 103.744 30 90s13.32-28.166 36.545-39.568zM30 142.265c6.724 5.137 14.512 9.907 23.323 14.233C84.193 171.653 124.564 180 167 180c42.35 0 82.4-8.364 112.774-23.551 8.359-4.18 15.783-8.776 22.226-13.722v45.51c-29.896 8.485-56.359 25.209-76.778 47.548C206.946 239.908 187.386 242 167 242c-37.394 0-74.008-7.447-100.455-20.432C43.32 210.166 30 195.744 30 182v-39.735zm0 92c6.724 5.137 14.512 9.907 23.323 14.233C84.193 263.653 124.564 272 167 272c11.581 0 22.942-.621 34.021-1.839a163.743 163.743 0 0 0-18.293 61.395c-5.211.286-10.465.444-15.728.444-37.394 0-74.008-7.447-100.455-20.432C43.32 300.166 30 285.744 30 272v-37.735zM167 422c-37.394 0-74.008-7.447-100.455-20.432C43.32 390.166 30 375.744 30 362v-37.736c6.724 5.137 14.512 9.907 23.323 14.233C84.193 353.653 124.564 362 167 362c5.23 0 10.459-.132 15.654-.388a163.726 163.726 0 0 0 16.486 58.557A280.559 280.559 0 0 1 167 422zm180 60c-74.439 0-135-60.561-135-135s60.561-135 135-135 135 60.561 135 135-60.561 135-135 135z"/></svg>