<svg fill="currentColor" height="512" viewBox="0 0 32 32" width="512" xmlns="http://www.w3.org/2000/svg"><g id="_x30_6_network"><path d="m28 19c-.809 0-1.54.325-2.08.847l-6.011-3.01c.058-.271.091-.55.091-.837s-.033-.566-.091-.837l6.011-3.01c.54.522 1.271.847 2.08.847 1.654 0 3-1.346 3-3s-1.346-3-3-3-3 1.346-3 3c0 .123.022.24.036.359l-6.036 3.023c-.521-.597-1.21-1.035-2-1.24v-5.326c1.162-.415 2-1.514 2-2.816 0-1.654-1.346-3-3-3s-3 1.346-3 3c0 1.302.838 2.401 2 2.815v5.327c-.79.205-1.478.643-2 1.24l-6.037-3.022c.015-.12.037-.237.037-.36 0-1.654-1.346-3-3-3s-3 1.346-3 3 1.346 3 3 3c.809 0 1.54-.325 2.08-.847l6.011 3.01c-.058.271-.091.55-.091.837s.033.566.091.837l-6.011 3.01c-.54-.522-1.271-.847-2.08-.847-1.654 0-3 1.346-3 3s1.346 3 3 3 3-1.346 3-3c0-.123-.022-.24-.036-.359l6.036-3.023c.521.597 1.21 1.035 2 1.24v5.326c-1.162.415-2 1.514-2 2.816 0 1.654 1.346 3 3 3s3-1.346 3-3c0-1.302-.838-2.401-2-2.816v-5.326c.79-.205 1.478-.643 2-1.24l6.037 3.022c-.015.12-.037.237-.037.36 0 1.654 1.346 3 3 3s3-1.346 3-3-1.346-3-3-3zm0-10c.551 0 1 .449 1 1s-.449 1-1 1-1-.449-1-1 .449-1 1-1zm-24 2c-.551 0-1-.449-1-1s.449-1 1-1 1 .449 1 1-.449 1-1 1zm0 12c-.551 0-1-.449-1-1s.449-1 1-1 1 .449 1 1-.449 1-1 1zm12-20c.551 0 1 .449 1 1s-.449 1-1 1-1-.449-1-1 .449-1 1-1zm0 26c-.551 0-1-.449-1-1s.449-1 1-1 1 .449 1 1-.449 1-1 1zm0-11c-1.103 0-2-.897-2-2s.897-2 2-2 2 .897 2 2-.897 2-2 2zm12 5c-.551 0-1-.449-1-1s.449-1 1-1 1 .449 1 1-.449 1-1 1z"/></g></svg>
