 <svg
      viewBox="0 0 1024 1024"
      fill="currentColor"
      height="1em"
      width="1em"
    >
      <path d="M878.3 392.1L631.9 145.7c-6.5-6.5-15-9.7-23.5-9.7s-17 3.2-23.5 9.7L423.8 306.9c-12.2-1.4-24.5-2-36.8-2-73.2 0-146.4 24.1-206.5 72.3-15.4 12.3-16.6 35.4-2.7 49.4l181.7 181.7-215.4 215.2a15.8 15.8 0 00-4.6 9.8l-3.4 37.2c-.9 9.4 6.6 17.4 15.9 17.4.5 0 1 0 1.5-.1l37.2-3.4c3.7-.3 7.2-2 9.8-4.6l215.4-215.4 181.7 181.7c6.5 6.5 15 9.7 23.5 9.7 9.7 0 19.3-4.2 25.9-12.4 56.3-70.3 79.7-158.3 70.2-243.4l161.1-161.1c12.9-12.8 12.9-33.8 0-46.8z" />
      </svg>