<svg id="Layer_1" height="512" viewBox="0 0 36 36" width="512" xmlns="http://www.w3.org/2000/svg" data-name="Layer 1"><path d="m18 34a1.07 1.07 0 0 1 -.48-.11l-4.87-2.43a13.79 13.79 0 0 1 -7.65-12.41v-12.14a1.07 1.07 0 0 1 1.05-1.07h3.47a7.45 7.45 0 0 0 4-1.19l3.87-2.48a1.07 1.07 0 0 1 1.15 0l3.87 2.48a7.45 7.45 0 0 0 4 1.19h3.47a1.07 1.07 0 0 1 1.12 1.07v12.14a13.79 13.79 0 0 1 -7.67 12.4l-4.87 2.43a1.07 1.07 0 0 1 -.46.12zm-10.88-26v11.05a11.67 11.67 0 0 0 6.49 10.49l4.39 2.2 4.39-2.2a11.67 11.67 0 0 0 6.49-10.49v-11.05h-2.4a9.57 9.57 0 0 1 -5.19-1.53l-3.29-2.14-3.29 2.12a9.57 9.57 0 0 1 -5.19 1.55z"/><path d="m18 18.8a4.8 4.8 0 1 1 4.8-4.8 4.81 4.81 0 0 1 -4.8 4.8zm0-7.47a2.67 2.67 0 1 0 2.67 2.67 2.67 2.67 0 0 0 -2.67-2.66z"/><path d="m24.4 24.67h-2.13a2.14 2.14 0 0 0 -2.13-2.13h-4.28a2.13 2.13 0 0 0 -2.13 2.13h-2.13a4.26 4.26 0 0 1 4.26-4.26h4.27a4.27 4.27 0 0 1 4.27 4.26z"/></svg>