<svg xmlns="http://www.w3.org/2000/svg" viewBox="0 0 1400 1400"><path d="M367.43 422.13a54.44 54.44 0 0 1-38.66-16L205 282.35A54.69 54.69 0 0 1 282.37 205l123.74 123.79a54.68 54.68 0 0 1-38.68 93.34ZM1156.3 1211a54.51 54.51 0 0 1-38.67-16l-123.74-123.79a54.68 54.68 0 1 1 77.34-77.33L1195 1117.65a54.7 54.7 0 0 1-38.7 93.35Zm-912.6 0a54.7 54.7 0 0 1-38.7-93.35l123.74-123.76a54.69 54.69 0 0 1 77.36 77.32L282.37 1195a54.51 54.51 0 0 1-38.67 16Zm788.87-788.87a54.68 54.68 0 0 1-38.68-93.34L1117.61 205a54.69 54.69 0 0 1 77.39 77.35l-123.77 123.76a54.44 54.44 0 0 1-38.66 16.02ZM229.69 754.69h-175a54.69 54.69 0 0 1 0-109.38h175a54.69 54.69 0 0 1 0 109.38Zm1115.62 0h-175a54.69 54.69 0 0 1 0-109.38h175a54.69 54.69 0 0 1 0 109.38ZM700 1400a54.68 54.68 0 0 1-54.69-54.69v-175a54.69 54.69 0 0 1 109.38 0v175A54.68 54.68 0 0 1 700 1400Zm0-1115.62a54.7 54.7 0 0 1-54.69-54.69v-175a54.69 54.69 0 0 1 109.38 0v175A54.7 54.7 0 0 1 700 284.38Z"/><circle cx="700" cy="700" r="306.25"/></svg>