<svg clip-rule="evenodd" fill-rule="evenodd" height="512" stroke-linejoin="round" stroke-miterlimit="2" viewBox="0 0 24 24" width="512" xmlns="http://www.w3.org/2000/svg"><g id="Icon"><path d="m19.393 10.825c-.097-.403.151-.808.553-.905.402-.098.808.15.905.553.181.75.277 1.533.277 2.338 0 5.485-4.453 9.939-9.939 9.939-5.485 0-9.939-4.454-9.939-9.939 0-5.486 4.454-9.939 9.939-9.939.805 0 1.588.096 2.338.277.403.097.651.503.553.905-.097.402-.502.65-.905.553-.637-.154-1.302-.235-1.986-.235-4.658 0-8.439 3.781-8.439 8.439s3.781 8.439 8.439 8.439 8.439-3.781 8.439-8.439c0-.684-.081-1.349-.235-1.986z"/><path d="m14.764 12.811c0-.414.336-.75.75-.75.413 0 .75.336.75.75 0 2.8-2.274 5.074-5.075 5.074-2.8 0-5.074-2.274-5.074-5.074 0-2.801 2.274-5.075 5.074-5.075.414 0 .75.337.75.75 0 .414-.336.75-.75.75-1.973 0-3.574 1.602-3.574 3.575s1.601 3.574 3.574 3.574 3.575-1.601 3.575-3.574z"/><path d="m22.53 5.588-3.057 3.058c-.141.141-.332.22-.531.22h-3.058c-.414 0-.75-.336-.75-.75v-3.058c0-.199.079-.39.22-.531l3.058-3.057c.184-.184.45-.26.703-.2s.457.246.539.493l.646 1.937 1.937.646c.247.082.433.286.493.539s-.016.519-.2.703zm-1.918-.202-1.142-.381c-.224-.075-.4-.251-.475-.475l-.381-1.142-1.98 1.98v1.998h1.998z"/><path d="m15.354 7.585c.293-.293.768-.293 1.061 0s.293.768 0 1.061l-4.587 4.586c-.293.293-.768.293-1.06 0-.293-.292-.293-.767 0-1.06z"/></g></svg>