<svg clip-rule="evenodd" fill-rule="evenodd" height="512" stroke-linejoin="round" stroke-miterlimit="2" viewBox="0 0 24 24" width="512" xmlns="http://www.w3.org/2000/svg"><path d="M19.393 10.825a.75.75 0 0 1 1.458-.352c.181.75.277 1.533.277 2.338 0 5.485-4.453 9.939-9.939 9.939-5.485 0-9.939-4.454-9.939-9.939 0-5.486 4.454-9.939 9.939-9.939.805 0 1.588.096 2.338.277a.75.75 0 1 1-.352 1.458A8.442 8.442 0 0 0 2.75 12.811a8.442 8.442 0 0 0 8.439 8.439 8.442 8.442 0 0 0 8.204-10.425z"/><path d="M14.764 12.811a.75.75 0 0 1 1.5 0c0 2.8-2.274 5.074-5.075 5.074a5.077 5.077 0 0 1-5.074-5.074 5.077 5.077 0 0 1 5.074-5.075.75.75 0 0 1 0 1.5 3.575 3.575 0 1 0 3.575 3.575zm7.766-7.223-3.057 3.058a.75.75 0 0 1-.531.22h-3.058a.75.75 0 0 1-.75-.75V5.058a.75.75 0 0 1 .22-.531l3.058-3.057a.75.75 0 0 1 1.242.293L20.3 3.7l1.937.646a.75.75 0 0 1 .293 1.242zm-1.918-.202-1.142-.381a.753.753 0 0 1-.475-.475l-.381-1.142-1.98 1.98v1.998h1.998z"/><path d="M15.354 7.585a.75.75 0 1 1 1.061 1.061l-4.587 4.586a.749.749 0 1 1-1.06-1.06z"/></svg>